<svg xmlns="http://www.w3.org/2000/svg" viewBox="0 0 1280 720"><defs><linearGradient id="sky" x1="0" y1="0" x2="0" y2="1"><stop stop-color="#64b5f6"/><stop offset="1" stop-color="#87ceeb"/></linearGradient><clipPath id="runner"><rect x="720" y="135" width="420" height="420" rx="28"/></clipPath></defs><rect width="1280" height="720" fill="url(#sky)"/><circle cx="1110" cy="105" r="72" fill="#ffeb3b"/><path d="M0 515L180 300l170 215 190-250 220 250 180-180 210 180z" fill="#2d5a3d"/><path d="M0 575L210 390l170 185 200-225 230 225 170-160 300 160z" fill="#4c9141"/><rect y="575" width="1280" height="145" fill="#2e8b57"/><g clip-path="url(#runner)"><image href="../../games/jamaica-run/assets/IMG_3408.png" x="650" y="65" width="620" height="620" preserveAspectRatio="xMidYMid slice"/></g><rect x="720" y="135" width="420" height="420" rx="28" fill="none" stroke="rgba(255,255,255,.65)" stroke-width="8"/><text x="70" y="120" fill="#ffd700" font-family="system-ui,sans-serif" font-size="88" font-weight="900" stroke="#111" stroke-width="3">JAMAICA RUN</text><text x="76" y="185" fill="#fff" font-family="system-ui,sans-serif" font-size="31" font-weight="700">COLLECT · JUMP · DOUBLE JUMP · SURVIVE</text><g transform="translate(85 250)"><rect width="500" height="210" rx="28" fill="rgba(0,0,0,.62)"/><text x="35" y="62" fill="#fff" font-family="system-ui,sans-serif" font-size="32" font-weight="800">Original animated runner</text><text x="35" y="112" fill="#e7f5e9" font-family="system-ui,sans-serif" font-size="25">Tropical endless-runner action</text><text x="35" y="154" fill="#e7f5e9" font-family="system-ui,sans-serif" font-size="25">Global leaderboard enabled</text></g></svg>