<svg xmlns="http://www.w3.org/2000/svg" viewBox="0 0 1280 720" role="img" aria-labelledby="t d"><title id="t">Rasta Runner</title><desc id="d">A cinematic Jamaican runner racing through a dramatic island landscape.</desc><defs><linearGradient id="sky" x1="0" y1="0" x2="1" y2="1"><stop stop-color="#071a2b"/><stop offset=".42" stop-color="#df6b38"/><stop offset="1" stop-color="#ffd76a"/></linearGradient><linearGradient id="road" x1="0" y1="0" x2="0" y2="1"><stop stop-color="#273129"/><stop offset="1" stop-color="#090c0a"/></linearGradient><linearGradient id="title" x1="0" x2="1"><stop stop-color="#f6d64a"/><stop offset=".5" stop-color="#43c96b"/><stop offset="1" stop-color="#e64d3f"/></linearGradient><filter id="glow"><feGaussianBlur stdDeviation="8" result="b"/><feMerge><feMergeNode in="b"/><feMergeNode in="SourceGraphic"/></feMerge></filter><filter id="shadow"><feDropShadow dx="0" dy="14" stdDeviation="14" flood-opacity=".6"/></filter></defs><rect width="1280" height="720" fill="url(#sky)"/><circle cx="1010" cy="150" r="92" fill="#ffe39a" opacity=".95" filter="url(#glow)"/><path d="M0 410 150 265 295 395 430 205 585 390 720 250 900 395 1050 230 1280 410V570H0Z" fill="#18352d" opacity=".95"/><path d="M0 470 165 355 320 470 500 330 675 470 855 345 1040 470 1170 375 1280 455V620H0Z" fill="#2f6247"/><path d="M0 720V560c230-80 450-68 640 2 205 75 420 70 640-10v168Z" fill="url(#road)"/><path d="M620 720 676 548 710 548 765 720Z" fill="#e9d88d" opacity=".82"/><g opacity=".72"><path d="M86 468v-96h16v96" fill="#5e351f"/><path d="M94 372c-48-30-54-58-12-43 18-38 40-34 33 10 47-8 50 15 9 30z" fill="#1e7b3e"/><path d="M1162 465v-112h17v112" fill="#5e351f"/><path d="M1170 353c-52-32-58-62-12-46 20-40 43-36 35 11 50-8 53 16 10 32z" fill="#1e7b3e"/></g><g transform="translate(760 206)" filter="url(#shadow)"><ellipse cx="80" cy="392" rx="120" ry="26" fill="#000" opacity=".35"/><path d="M105 72c28 18 38 56 22 86l-29 54 57 84-36 23-72-94 18-76-38 34-31-29 55-67z" fill="#2e1610"/><circle cx="91" cy="45" r="34" fill="#6c321f"/><path d="M61 30c18-56 74-48 82 2-22-12-45-15-82-2z" fill="#20130d"/><path d="M69 12c-32-35-48 17-8 50m25-57c-22-44-53 7-18 55m43-47c-5-47-48-11-34 45" fill="none" stroke="#21130e" stroke-width="13" stroke-linecap="round"/><path d="M54 124 126 108 151 201 80 221Z" fill="#1e8b4b"/><path d="m80 221-25 91-66 75 35 28 81-85 23-72z" fill="#d6b24a"/><path d="m126 221 59 78 85 37-19 39-105-38-62-77z" fill="#ca4a3b"/><path d="m-10 387 38 29-26 18-43-20zM249 373l24-37 22 14-20 42z" fill="#f2efe7"/></g><g transform="translate(58 60)" filter="url(#shadow)"><text x="0" y="0" dominant-baseline="hanging" fill="url(#title)" font-family="Impact,Arial Black,sans-serif" font-size="112" font-weight="900" letter-spacing="3" stroke="#0b0d0b" stroke-width="8" paint-order="stroke">RASTA</text><text x="0" y="108" dominant-baseline="hanging" fill="#fff" font-family="Impact,Arial Black,sans-serif" font-size="112" font-weight="900" letter-spacing="3" stroke="#0b0d0b" stroke-width="8" paint-order="stroke">RUNNER</text><text x="8" y="252" fill="#fff" font-family="system-ui,sans-serif" font-size="31" font-weight="800" letter-spacing="6">RUN THE ISLAND • OWN THE ROAD</text></g><g transform="translate(65 570)"><rect width="430" height="78" rx="39" fill="#06110b" opacity=".88" stroke="#f3d34a" stroke-width="3"/><text x="34" y="50" fill="#fff" font-family="system-ui,sans-serif" font-size="29" font-weight="800">8 STAGES • COMBOS • LEADERBOARDS</text></g></svg>